<svg xmlns="http://www.w3.org/2000/svg" width="984.778" height="342.193" viewBox="0 0 984.778 342.193">
    <defs>
        <style>
            .cls-1{fill:#fff}.cls-2{fill:#0fbe2a}
        </style>
    </defs>
    <g id="Group_1134" data-name="Group 1134" transform="translate(-220.027 -711)">
        <g id="Group_1125" data-name="Group 1125">
            <g id="Layer_1" data-name="Layer 1" transform="translate(538 711)">
                <path id="Path_88" d="M323 161.526a161.5 161.5 0 1 0-161.5 161.526A161.512 161.512 0 0 0 323 161.526z" class="cls-1" data-name="Path 88"/>
                <path id="Path_89" d="M277.677 39.8a161.4 161.4 0 0 1 47.81 114.807c0 89.64-73.018 162.306-163.089 162.306a162.878 162.878 0 0 1-87.363-25.233 162.971 162.971 0 0 0 115.28 47.5c90.069 0 163.087-72.665 163.087-162.306A161.994 161.994 0 0 0 277.677 39.8z" class="cls-1" data-name="Path 89" transform="translate(-30.403 -16.126)"/>
                <path id="Path_90" d="M316 198.572a15.01 15.01 0 0 0-15.01-15.013h-21.275a87.342 87.342 0 0 0 6.554-32.023c0-.444.1-2.016.1-2.365v-.7c-.446-14.6-4.916-19.074-10.658-21.2a10.658 10.658 0 0 0-10.66 10.658v1.066c-.058 3.65-5.186 11.181-5.186 11.181l-39.119 39.564-.66.811-.086 33.514.086 47.627a2.707 2.707 0 0 0 2.706 2.707h73.64a10.139 10.139 0 0 0 10.026-8.606c2.896-18.936 9.542-62.879 9.542-67.221z" class="cls-2" data-name="Path 90" transform="translate(-77.528 -42.669)"/>
                <path id="Path_91" d="M173.82 318.347h-26.8a8.5 8.5 0 0 1-8.5-8.5v-80.465a8.494 8.494 0 0 1 8.5-8.495h26.8a8.494 8.494 0 0 1 8.5 8.495v80.468a8.5 8.5 0 0 1-8.5 8.497z" class="cls-2" data-name="Path 91" transform="translate(-50.28 -77.759)"/>
                <path id="Path_92" d="M173.82 352.036h-26.8a8.5 8.5 0 0 1-8.5-8.5v16.007a8.5 8.5 0 0 0 8.5 8.5h26.8a8.5 8.5 0 0 0 8.5-8.5v-16.004a8.5 8.5 0 0 1-8.5 8.497z" class="cls-2" data-name="Path 92" transform="translate(-50.28 -125.693)"/>
                <path id="Path_93" d="M301.05 221.9h-2.75a232.98 232.98 0 0 1-.616 5.1 78.194 78.194 0 0 1-77.536 68.179v14.854a2.709 2.709 0 0 0 2.706 2.709h73.64a10.141 10.141 0 0 0 10.026-8.606c2.9-18.937 9.543-62.879 9.543-67.224A15.009 15.009 0 0 0 301.05 221.9z" class="cls-2" data-name="Path 93" transform="translate(-77.584 -78.482)"/>
            </g>
        </g>
        <g id="Group_1131" data-name="Group 1131" transform="translate(-10 344)">
            <path id="Path_61" d="M352.147 95.9L336.96 59.347 321.773 95.9a21.465 21.465 0 0 1-18.119 13.164l-39.461 3.148 30.076 25.739a21.471 21.471 0 0 1 6.921 21.3l-9.2 38.5 33.776-20.649a21.464 21.464 0 0 1 22.4 0l33.776 20.649-9.2-38.5a21.471 21.471 0 0 1 6.921-21.3l30.076-25.739-39.462-3.148a21.465 21.465 0 0 1-18.13-13.164z" class="cls-1" data-name="Path 61" transform="rotate(-28 1229.587 168.366)"/>
            <path id="Path_62" d="M321.37 83.112l-9.87-23.765-9.873 23.765a13.954 13.954 0 0 1-11.779 8.558l-25.653 2.046 19.552 16.732a13.958 13.958 0 0 1 4.5 13.847l-5.983 25.03 21.953-13.425a13.953 13.953 0 0 1 14.559 0l21.957 13.424-5.983-25.03a13.958 13.958 0 0 1 4.5-13.847l19.55-16.73-25.651-2.047a13.954 13.954 0 0 1-11.779-8.558z" class="cls-1" data-name="Path 62" transform="rotate(-28 1392.278 413.645)"/>
            <path id="Path_63" d="M352.147 95.9L336.96 59.347 321.773 95.9a21.465 21.465 0 0 1-18.119 13.164l-39.461 3.148 30.076 25.739a21.471 21.471 0 0 1 6.921 21.3l-9.2 38.5 33.776-20.649a21.464 21.464 0 0 1 22.4 0l33.776 20.649-9.2-38.5a21.471 21.471 0 0 1 6.921-21.3l30.076-25.739-39.462-3.148a21.465 21.465 0 0 1-18.13-13.164z" class="cls-1" data-name="Path 63" transform="rotate(-28 1515.013 -975.78)"/>
            <path id="Path_64" d="M321.37 83.112l-9.87-23.765-9.873 23.765a13.954 13.954 0 0 1-11.779 8.558l-25.653 2.046 19.552 16.732a13.958 13.958 0 0 1 4.5 13.847l-5.983 25.03 21.953-13.425a13.953 13.953 0 0 1 14.559 0l21.957 13.424-5.983-25.03a13.958 13.958 0 0 1 4.5-13.847l19.55-16.73-25.651-2.047a13.954 13.954 0 0 1-11.779-8.558z" class="cls-1" data-name="Path 64" transform="rotate(-28 1798.334 -1316.614)"/>
        </g>
    </g>
</svg>
